<svg width="32" height="32" viewBox="0 0 32 32" fill="none" xmlns="http://www.w3.org/2000/svg">
<g id="Icons / Filled / Arrow circle up">
<path id="Icon" fill-rule="evenodd" clip-rule="evenodd" d="M16.0002 28.7999C23.0694 28.7999 28.8002 23.0692 28.8002 16C28.8002 8.93071 23.0694 3.19995 16.0002 3.19995C8.93095 3.19995 3.2002 8.93071 3.2002 16C3.2002 23.0692 8.93095 28.7999 16.0002 28.7999ZM21.9316 14.8686L17.1316 10.0686C16.5067 9.44374 15.4937 9.44374 14.8688 10.0686L10.0688 14.8686C9.44399 15.4934 9.44399 16.5065 10.0688 17.1313C10.6937 17.7562 11.7067 17.7562 12.3316 17.1313L14.4002 15.0627V20.7999C14.4002 21.6836 15.1165 22.4 16.0002 22.4C16.8838 22.4 17.6002 21.6836 17.6002 20.7999V15.0627L19.6688 17.1313C20.2937 17.7562 21.3067 17.7562 21.9316 17.1313C22.5564 16.5065 22.5564 15.4934 21.9316 14.8686Z" fill="#473CFB" style="fill:#473CFB;fill:color(display-p3 0.2784 0.2353 0.9843);fill-opacity:1;"/>
</g>
</svg>
