<svg width="902" height="200" viewBox="0 0 902 200" fill="none" xmlns="http://www.w3.org/2000/svg">
<path d="M186.453 92.7277L153.435 80.3659L140.535 75.5346L153.75 40.2344L100 60.3605L46.2477 40.2344L59.4651 75.5365L46.5654 80.3678L13.5473 92.7296L10.1562 93.9984L63.1309 113.113C69.307 115.343 74.5007 119.54 77.9737 124.97C79.145 126.802 80.1213 128.772 80.8736 130.856L100 183.797L119.126 130.856C119.879 128.772 120.855 126.8 122.026 124.97C125.501 119.54 130.695 115.341 136.869 113.113L189.844 93.9984L186.453 92.7296V92.7277ZM129.869 104.021C120.545 107.385 113.204 114.727 109.84 124.05L100.088 151.081L78.2387 92.7277L73.6101 80.3659L70.2853 71.4848L66.0854 60.267L83.1674 66.6632L119.77 80.3678L136.395 86.5926L152.786 92.7296L156.9 94.2693L129.869 104.023V104.021Z" fill="#473CFB" style="fill:#473CFB;fill:color(display-p3 0.2784 0.2353 0.9843);fill-opacity:1;"/>
<path d="M718.571 132.106H718.853L738.535 77.6309H752.776L724.718 150.544C717.737 168.141 710.897 173.869 699.869 173.869C696.796 173.869 694.703 173.591 691.074 172.891V161.719C693.445 161.997 694.704 162.138 696.937 162.138C702.518 162.138 708.802 159.344 711.731 148.169L682.836 77.6309H697.773L718.571 132.106ZM555.265 75.5312C573.41 75.5312 587.231 89.7754 587.231 113.244C587.231 136.713 573.41 150.818 555.265 150.818C544.096 150.818 537.257 145.794 533.35 140.065H533.068V173.588H519.389V77.6309H533.068V86.0127H533.35C537.257 80.9846 544.096 75.5372 555.265 75.5371V75.5312ZM787.666 75.3936C809.304 75.3936 821.45 89.6441 821.45 111.713C821.45 113.669 821.45 115.762 821.31 116.881H766.588C766.869 128.893 773.846 139.787 787.947 139.787C800.512 139.787 805.256 131.687 806.652 126.938H820.473C816.844 140.628 806.374 150.963 787.666 150.963C765.054 150.963 752.489 135.456 752.489 113.109C752.489 90.7625 765.891 75.3965 787.666 75.3965V75.3936ZM653.665 75.3965C668.322 75.3966 680.05 81.5441 680.05 99.9814V132.666L680.043 132.662C680.043 137.831 680.743 140.484 683.395 140.484C683.813 140.484 684.232 140.484 685.068 140.344V148.725C682.698 149.284 680.325 149.565 678.092 149.565C671.389 149.565 667.622 146.913 666.923 138.81H666.642C661.897 146.213 653.802 150.822 642.215 150.822C627.976 150.822 618.903 142.581 618.903 130.428C618.904 114.503 630.909 109.894 648.64 106.403C659.805 104.31 666.645 102.909 666.645 95.9277C666.644 90.7623 663.574 86.4316 653.105 86.4316C640.685 86.4317 636.915 90.344 636.216 99.8408H622.258C622.954 86.1533 631.89 75.3965 653.665 75.3965ZM363.484 123.166C363.484 132.806 367.673 139.228 377.863 139.229C389.591 139.229 397.128 132.106 397.128 121.354V77.6309H410.808V148.865H397.128V139.925H396.85C393.08 145.372 385.681 150.818 373.397 150.818C360.274 150.818 349.667 143.278 349.667 126.935V77.6309H363.484V123.166ZM469.008 77.6309H482.688V88.9473H469.008V129.172L469.012 129.175C469.012 136.715 471.104 138.394 476.966 138.394C479.199 138.394 480.317 138.253 482.828 137.834V148.869C479.199 149.569 477.103 149.706 474.033 149.706C462.446 149.706 455.328 145.237 455.328 128.756V88.9502H444.997V77.6348H455.328V54.7285H469.008V77.6309ZM286.997 127.497H287.278L316.174 49H336.415V148.869H321.337V71.3467H321.059L293.559 148.869H280.854L253.356 71.3467H253.076V148.869H238V49H258.241L286.997 127.497ZM437.602 148.869H423.922V49H437.602V148.869ZM863.738 75.959C866.249 75.959 868.207 76.0998 870.3 76.3779V89.5059C868.482 89.2246 867.23 89.084 865.693 89.084C853.269 89.084 844.334 98.4473 844.334 111.994V148.869H830.654V77.6348H844.334V91.1816H844.614C848.243 82.2441 854.106 75.959 863.738 75.959ZM506.408 148.865H492.729V77.6309H506.408V148.865ZM609.978 148.659H596.298V49H609.978V148.659ZM666.647 110.878C664.414 112.975 658.271 114.509 651.013 116.047C638.451 118.697 633.286 122.05 633.286 129.453C633.286 136.156 636.774 139.787 645.291 139.787C657.574 139.787 666.647 133.503 666.647 121.072V110.878ZM553.032 86.9902C540.749 86.9902 533.209 97.1875 533.209 113.25C533.209 129.312 540.749 139.51 553.032 139.51C566.434 139.51 572.854 127.215 572.854 113.25C572.854 99.2845 566.434 86.9905 553.032 86.9902ZM787.247 86.5723C775.801 86.5725 767.428 94.3908 766.588 106.125H807.07C807.07 94.9531 799.393 86.5723 787.247 86.5723ZM507.252 64.9219H491.755V50.1191H507.252V64.9219Z" fill="#1A2B58" style="fill:#1A2B58;fill:color(display-p3 0.1020 0.1686 0.3451);fill-opacity:1;"/>
</svg>
