<svg width="24" height="71" viewBox="0 0 24 71" fill="none" xmlns="http://www.w3.org/2000/svg">
<g id="Group 8">
<path id="Rectangle 10" d="M0 3C0 1.34315 1.34315 0 3 0H21C22.6569 0 24 1.34315 24 3V13.7574C24 14.553 23.6839 15.3161 23.1213 15.8787L14.1213 24.8787C12.9497 26.0503 11.0503 26.0503 9.87868 24.8787L0.87868 15.8787C0.31607 15.3161 0 14.553 0 13.7574V3Z" fill="#473CFB" style="fill:#473CFB;fill:color(display-p3 0.2784 0.2353 0.9843);fill-opacity:1;"/>
<path id="Rectangle 11" d="M11 25H13V26.4194V70C12 70.8681 12 70.8681 11 70C11 50.8157 11 45.2038 11 26.4194C11 25.9512 11 25.4782 11 25Z" fill="#473CFB" style="fill:#473CFB;fill:color(display-p3 0.2784 0.2353 0.9843);fill-opacity:1;"/>
</g>
</svg>
